<?xml version="1.0" standalone="no"?>
<!DOCTYPE svg PUBLIC "-//W3C//DTD SVG 20010904//EN"
 "http://www.w3.org/TR/2001/REC-SVG-20010904/DTD/svg10.dtd">
<svg version="1.0" xmlns="http://www.w3.org/2000/svg"
 width="288.000000pt" height="288.000000pt" viewBox="0 0 288.000000 288.000000"
 preserveAspectRatio="xMidYMid meet">
<metadata>
Created by potrace 1.16, written by Peter Selinger 2001-2019
</metadata>
<g transform="translate(0.000000,288.000000) scale(0.085460,-0.095681)"
fill="#000000" stroke="none">
<path d="M1390 2653 c-135 -98 -405 -298 -600 -444 -195 -145 -397 -295 -447
-333 -54 -39 -93 -75 -93 -85 0 -19 79 -101 98 -101 14 0 276 188 646 464 358
267 485 361 577 425 l77 53 88 -60 c49 -34 110 -76 135 -94 26 -18 98 -69 160
-112 63 -44 155 -109 204 -146 114 -84 292 -213 365 -265 31 -22 127 -91 213
-152 86 -62 160 -113 165 -113 14 0 102 95 102 111 0 8 -35 40 -77 70 -43 31
-161 116 -263 189 -546 396 -1067 764 -1085 767 -13 2 -100 -55 -265 -174z
M1467 2203 c-4 -3 -7 -42 -7 -85 l0 -79 83 3 82 3 3 83 3 82 -79 0 c-43 0 -82
-3 -85 -7z M1670 2125 l0 -85 80 0 80 0 0 85 0 85 -80 0 -80 0 0 -85z M1467
1994 c-4 -4 -7 -43 -7 -86 l0 -78 85 0 86 0 -3 83 -3 82 -75 3 c-42 1 -79 0
-83 -4z M1670 1915 l0 -85 80 0 80 0 0 85 0 85 -80 0 -80 0 0 -85z M1396 1598
c-21 -72 -26 -129 -14 -160 9 -23 13 -97 13 -255 l0 -223 35 0 35 0 2 223 c1
127 7 239 13 262 9 31 8 54 -2 100 -13 57 -15 60 -46 63 -20 2 -34 -2 -36 -10z
M1801 1533 c-70 -55 -102 -184 -66 -270 9 -20 36 -58 60 -84 l45 -48 1 -148
c1 -119 1 -508 -1 -610 0 -23 -1 -23 -140 -21 l-140 1 0 152 c0 127 -3 163
-22 220 -18 59 -19 73 -8 99 38 95 27 106 -101 106 -95 0 -100 -1 -110 -24 -8
-18 -7 -30 5 -54 20 -39 20 -82 1 -129 -11 -27 -15 -77 -15 -204 0 -93 -1
-169 -2 -169 -105 -9 -390 -30 -409 -30 l-26 0 -7 366 c-4 214 -11 374 -17
385 -8 16 -21 19 -82 19 -40 0 -78 -4 -86 -9 -16 -10 -30 -274 -31 -592 l0
-197 -67 -11 c-230 -39 -393 -76 -393 -88 0 -16 -7 -16 372 4 444 24 1761 24
2241 0 403 -20 377 -20 377 -4 0 12 -70 29 -280 67 -58 10 -127 21 -155 25
l-50 6 0 112 c0 62 -4 151 -9 198 -15 145 10 197 109 234 56 21 75 38 75 72
l0 23 -265 0 -265 0 0 -30 c0 -33 20 -50 82 -69 52 -17 95 -69 104 -126 4 -28
0 -90 -11 -162 -10 -67 -15 -140 -12 -175 4 -45 2 -58 -7 -55 -7 3 -91 10
-187 16 -96 7 -192 14 -214 17 l-40 4 -3 333 c-3 426 -2 437 53 496 60 65 78
105 79 176 0 69 -18 111 -72 168 -55 57 -62 51 -62 -54 0 -106 -6 -119 -59
-143 -39 -18 -40 -18 -85 4 l-46 22 0 104 c0 116 -3 121 -59 77z m-321 -1033
c0 -87 -4 -140 -10 -140 -6 0 -10 53 -10 140 0 87 4 140 10 140 6 0 10 -53 10
-140z m-78 35 c1 -52 2 -111 3 -132 0 -21 -5 -38 -12 -40 -10 -4 -13 27 -13
131 0 157 19 192 22 41z M633 1510 c-142 -21 -279 -153 -308 -297 -9 -45 15
-44 50 1 57 75 155 117 222 95 45 -14 63 -45 70 -116 3 -32 11 -61 17 -65 18
-13 151 -9 164 4 7 7 12 36 12 65 0 68 15 98 57 118 38 18 77 14 104 -11 11
-10 33 -14 65 -12 l49 3 0 105 0 105 -47 3 c-37 2 -51 -1 -67 -17 -30 -30 -91
-28 -129 4 -27 23 -38 25 -118 24 -49 -1 -113 -5 -141 -9z M2341 1491 c-12
-21 -16 -317 -5 -345 5 -14 39 -16 270 -16 l264 0 -2 188 -3 187 -37 3 c-22 2
-38 -1 -38 -7 0 -6 -7 -11 -15 -11 -8 0 -15 5 -15 11 0 6 -16 9 -37 7 -35 -3
-38 -6 -41 -35 -2 -18 -7 -33 -12 -33 -5 0 -10 15 -12 33 -3 31 -5 32 -51 35
-27 2 -55 -2 -63 -9 -11 -9 -17 -9 -28 0 -27 22 -71 9 -74 -21 -2 -16 -7 -28
-12 -28 -5 0 -10 12 -12 28 -4 36 -60 45 -77 13z M2344 1101 c-2 -2 -4 -35 -4
-73 l0 -68 265 0 265 0 0 69 0 69 -57 6 c-62 7 -462 4 -469 -3z"/>
</g>
</svg>
