<?xml version="1.0" standalone="no"?>
<svg version="1.0" xmlns="http://www.w3.org/2000/svg"
 width="288.000000pt" height="288.000000pt" viewBox="0 0 288.000000 288.000000"
 preserveAspectRatio="xMidYMid meet">
<g transform="translate(0.000000,288.000000) scale(0.085460,-0.095364)" fill="#C8B281" stroke="none">
<path d="M2562 1522 c-8 -5 -59 -8 -114 -7 -124 3 -120 10 -122 -208 -1 -147
0 -160 18 -169 11 -6 120 -11 268 -12 211 -1 250 1 258 14 5 8 10 90 10 182 0
138 -3 169 -16 182 -18 19 -55 21 -72 4 -9 -9 -17 -9 -34 0 -13 6 -45 11 -73
10 -27 -1 -63 1 -80 5 -16 4 -36 4 -43 -1z"/>
</g>
<g transform="translate(0.000000,288.000000) scale(0.085460,-0.095364)" fill="#5B722E" stroke="none">
<path d="M1311 921 c-15 -27 -14 -51 4 -85 19 -35 19 -46 0 -104 -12 -36 -15
-86 -13 -217 l3 -170 120 -1 c79 -1 123 2 127 10 11 16 9 285 -2 326 -34 127
-34 128 -16 145 12 13 16 30 14 64 l-3 46 -112 3 c-103 2 -113 1 -122 -17z"/>
</g>
<g transform="translate(0.000000,288.000000) scale(0.085460,-0.095364)" fill="#13161B" stroke="none">
<path d="M1394 2658 c-131 -94 -318 -230 -414 -301 -96 -72 -287 -214 -425
-315 -137 -102 -265 -196 -282 -209 -18 -13 -33 -30 -33 -36 0 -19 83 -97 104
-97 10 0 64 33 119 73 271 195 385 278 667 487 364 269 505 370 520 370 12 0
440 -303 779 -551 247 -181 530 -379 542 -379 21 0 99 82 99 105 0 13 -23 36
-73 71 -82 58 -457 328 -532 384 -27 20 -185 133 -350 250 -165 118 -332 238
-372 267 -40 29 -81 53 -91 53 -11 0 -127 -77 -258 -172z M1460 2125 l0 -85
80 0 80 0 0 85 0 85 -80 0 -80 0 0 -85z M1662 2128 l3 -83 80 0 80 0 3 83 3
82 -86 0 -86 0 3 -82z M1460 1915 l0 -85 79 0 79 0 6 31 c8 39 8 87 0 117 -6
20 -12 22 -85 22 l-79 0 0 -85z M1665 1947 c-4 -29 -5 -66 -3 -82 l3 -30 83
-3 82 -3 0 86 0 85 -79 0 -80 0 -6 -53z M1380 1542 c-9 -52 -10 -74 -1 -90 7
-14 11 -101 11 -256 l0 -236 35 0 35 0 0 230 c0 188 3 237 15 261 12 22 13 38
6 67 -5 20 -12 49 -15 65 -5 23 -12 27 -40 27 -33 0 -33 0 -46 -68z M1788
1523 c-53 -56 -68 -93 -68 -168 0 -75 20 -122 70 -170 17 -16 37 -39 43 -50
12 -20 22 -702 11 -756 -5 -25 -5 -25 -112 -26 -296 0 -636 -13 -803 -29 l-56
-6 -7 373 c-5 307 -9 376 -21 389 -19 21 -19 38 0 56 10 10 15 35 15 72 0 72
27 110 83 119 30 4 45 1 67 -16 34 -24 101 -29 119 -7 8 9 11 47 9 107 l-3 94
-47 3 c-36 2 -54 -2 -77 -19 -36 -27 -91 -21 -127 12 -22 21 -30 21 -151 17
-152 -7 -214 -26 -291 -94 -55 -48 -108 -141 -119 -207 -8 -50 7 -48 59 10 73
78 166 110 228 78 40 -20 50 -43 50 -110 0 -54 2 -57 30 -68 34 -13 40 -37 10
-37 -39 0 -42 -29 -48 -420 l-5 -378 -71 -11 c-210 -33 -396 -75 -396 -89 0
-12 17 -14 108 -8 615 36 1973 43 2540 13 379 -20 352 -20 352 -2 0 8 -2 15
-5 15 -3 0 -88 15 -188 34 -100 19 -207 37 -238 40 l-55 7 4 82 c2 48 -2 124
-12 182 -25 165 -1 230 102 277 72 33 82 41 82 76 0 20 -5 22 -55 22 -42 0
-55 3 -55 15 0 12 13 15 55 15 l56 0 -3 73 -3 72 -262 3 -263 2 0 -75 c0 -68
2 -75 20 -75 11 0 20 -7 20 -15 0 -8 -9 -15 -20 -15 -15 0 -20 -7 -20 -29 0
-34 12 -46 65 -60 103 -27 140 -122 112 -289 -9 -56 -17 -131 -17 -167 0 -77
27 -71 -225 -50 -99 8 -190 15 -202 15 l-23 0 0 378 c0 411 0 408 59 457 44
38 71 101 71 168 0 70 -16 112 -65 166 -57 63 -64 57 -67 -61 l-3 -103 -43
-23 c-36 -20 -47 -22 -75 -13 -67 23 -77 41 -77 146 0 110 -6 115 -62 58z
m872 -578 c0 -12 -18 -15 -105 -15 -87 0 -105 3 -105 15 0 12 18 15 105 15 87
0 105 -3 105 -15z"/>
</g>
</svg>
